# xmcd
#
# Track frame offsets:
#	150
#	26409
#	73148
#	100215
#	140586
#	172807
#	204221
#
# Disc length: 2886 seconds
#
# Revision: 1
# Processed by: cddbd v1.4PL0 Copyright (c) Steve Scherf et al.
# Submitted via: audiograbber 1.80
#
DISCID=580b4407
DTITLE=Little George Band - Live at JJ's Blues
DYEAR=1900
DGENRE=
TTITLE0=Who Got the Money?
TTITLE1=Sweet little angel
TTITLE2=The Grinder
TTITLE3=19 years old
TTITLE4=Don't You Lie to Me
TTITLE5=Crossroads
TTITLE6=Baby, it ain't workin' for a livin'
EXTD=408 307 9005\nlittlegeorgo4blues@yahoo.com
EXTT0=
EXTT1=
EXTT2=
EXTT3=
EXTT4=
EXTT5=
EXTT6=
PLAYORDER=
